<?xml version="1.0" encoding="UTF-8"?>
<!DOCTYPE svg PUBLIC "-//W3C//DTD SVG 1.1//EN" "http://www.w3.org/Graphics/SVG/1.1/DTD/svg11.dtd">
<svg xmlns="http://www.w3.org/2000/svg" version="1.1" width="245px" height="118px" style="shape-rendering:geometricPrecision; text-rendering:geometricPrecision; image-rendering:optimizeQuality; fill-rule:evenodd; clip-rule:evenodd" xmlns:xlink="http://www.w3.org/1999/xlink">
<g><path style="opacity:1" fill="#c92677" d="M 138.5,11.5 C 142.107,12.9456 144.607,15.6123 146,19.5C 148.511,28.128 147.177,36.128 142,43.5C 138.578,49.0108 134.244,53.6775 129,57.5C 118.144,70.4161 116.644,84.4161 124.5,99.5C 124.167,99.8333 123.833,100.167 123.5,100.5C 110.17,89.0214 106.337,75.0214 112,58.5C 118.714,50.7877 125.047,42.7877 131,34.5C 134.817,27.2157 137.317,19.5491 138.5,11.5 Z"/></g>
<g><path style="opacity:1" fill="#c72474" d="M 147.5,12.5 C 148.675,12.281 149.675,12.6143 150.5,13.5C 156.485,19.8027 160.651,27.1361 163,35.5C 163.777,38.4294 163.61,41.2628 162.5,44C 165.516,46.3767 167.516,49.3767 168.5,53C 168.031,54.8869 167.031,56.3869 165.5,57.5C 166.447,59.059 167.113,60.7257 167.5,62.5C 166.803,66.4705 166.303,70.4705 166,74.5C 165.25,75.1258 164.416,75.6258 163.5,76C 158.833,76.3333 154.167,76.6667 149.5,77C 138.486,78.8702 135.319,84.7036 140,94.5C 144.143,97.1647 148.643,97.998 153.5,97C 165.016,93.9095 176.349,90.2429 187.5,86C 193.442,84.5941 199.442,84.2608 205.5,85C 212.964,87.4144 216.297,92.5811 215.5,100.5C 206.886,99.0063 198.22,98.5063 189.5,99C 177.905,100.976 166.571,103.976 155.5,108C 140.325,110.169 130.158,104.002 125,89.5C 123.069,72.9646 128.736,59.6312 142,49.5C 149.689,38.076 151.522,25.7427 147.5,12.5 Z"/></g>
<g><path style="opacity:0.977" fill="#1c1400" d="M 244.5,43.5 C 244.5,44.5 244.5,45.5 244.5,46.5C 243.167,46.5 241.833,46.5 240.5,46.5C 240.5,57.1667 240.5,67.8333 240.5,78.5C 238.173,78.3354 236.007,77.6687 234,76.5C 227.667,68.5 221.333,60.5 215,52.5C 214.5,59.8258 214.334,67.1591 214.5,74.5C 215.833,74.5 217.167,74.5 218.5,74.5C 218.5,75.5 218.5,76.5 218.5,77.5C 214.116,77.8256 209.783,77.4922 205.5,76.5C 206.655,75.0495 208.155,74.0495 210,73.5C 210.667,64.8333 210.667,56.1667 210,47.5C 208.644,46.6198 207.144,46.2865 205.5,46.5C 205.5,45.5 205.5,44.5 205.5,43.5C 208.85,43.335 212.183,43.5017 215.5,44C 222.213,52.5914 229.047,61.0914 236,69.5C 236.667,62.1667 236.667,54.8333 236,47.5C 234.644,46.6198 233.144,46.2865 231.5,46.5C 231.5,45.5 231.5,44.5 231.5,43.5C 235.833,43.5 240.167,43.5 244.5,43.5 Z"/></g>
<g><path style="opacity:0.929" fill="#1c1400" d="M 6.5,44.5 C 8.90315,44.393 10.7365,45.393 12,47.5C 13.7519,50.672 15.7519,53.672 18,56.5C 19.9698,53.0319 22.1365,49.6985 24.5,46.5C 26.8333,45.1667 29.1667,45.1667 31.5,46.5C 26.6938,50.2758 22.6938,54.7758 19.5,60C 22.8333,65.3333 26.1667,70.6667 29.5,76C 31.8098,76.4966 34.1432,76.6633 36.5,76.5C 37.8333,66.8333 37.8333,57.1667 36.5,47.5C 35.0222,47.762 33.6888,47.4287 32.5,46.5C 37.5,45.1667 42.5,45.1667 47.5,46.5C 46.3112,47.4287 44.9778,47.762 43.5,47.5C 43.5,51.5 43.5,55.5 43.5,59.5C 49.1667,59.5 54.8333,59.5 60.5,59.5C 60.6653,55.8183 60.4986,52.1516 60,48.5C 58.4905,47.9103 56.9905,47.2436 55.5,46.5C 60.8333,45.1667 66.1667,45.1667 71.5,46.5C 70.0095,47.2436 68.5095,47.9103 67,48.5C 66.3333,57.5 66.3333,66.5 67,75.5C 69.4009,76.6023 71.9009,76.769 74.5,76C 79.5691,66.0279 84.2357,55.8612 88.5,45.5C 89.365,44.4173 90.365,44.2506 91.5,45C 95.996,55.1495 100.496,65.3162 105,75.5C 106.205,76.0712 107.372,76.7379 108.5,77.5C 103.5,78.8333 98.5,78.8333 93.5,77.5C 94.6888,76.5713 96.0222,76.238 97.5,76.5C 97.1274,73.4261 96.4608,70.4261 95.5,67.5C 91.1667,67.5 86.8333,67.5 82.5,67.5C 81.5392,70.4261 80.8726,73.4261 80.5,76.5C 81.9778,76.238 83.3112,76.5713 84.5,77.5C 74.8333,78.8333 65.1667,78.8333 55.5,77.5C 56.9905,76.7564 58.4905,76.0897 60,75.5C 60.499,71.1794 60.6657,66.8461 60.5,62.5C 54.8333,62.5 49.1667,62.5 43.5,62.5C 43.5,67.1667 43.5,71.8333 43.5,76.5C 44.9778,76.238 46.3112,76.5713 47.5,77.5C 39.5208,78.6649 31.5208,78.8316 23.5,78C 20.8742,73.9162 18.3742,69.7495 16,65.5C 12.7956,69.4069 9.96231,73.5735 7.5,78C 5.09821,78.8141 2.76488,78.6474 0.5,77.5C 5.75626,73.0293 10.0896,67.696 13.5,61.5C 11.1979,57.367 8.69788,53.367 6,49.5C 4.64387,48.6198 3.14387,48.2865 1.5,48.5C 1.5,47.5 1.5,46.5 1.5,45.5C 3.41467,45.7845 5.08134,45.4511 6.5,44.5 Z M 88.5,53.5 C 90.2634,56.8637 91.9301,60.3637 93.5,64C 90.5,64.6667 87.5,64.6667 84.5,64C 86.2604,60.6488 87.5937,57.1488 88.5,53.5 Z"/></g>
<g><path style="opacity:0.931" fill="#1c1400" d="M 181.5,43.5 C 195.064,40.9254 203.064,46.2587 205.5,59.5C 203.181,74.5062 194.514,80.3395 179.5,77C 169.91,71.8376 166.744,64.0043 170,53.5C 172.566,48.6447 176.399,45.3113 181.5,43.5 Z M 182.5,46.5 C 188.734,45.3734 193.568,47.3734 197,52.5C 199.263,59.0048 198.929,65.3382 196,71.5C 188.323,76.463 181.989,75.1296 177,67.5C 173.526,58.8596 175.36,51.8596 182.5,46.5 Z"/></g>
</svg>
